<svg width="30" height="22" xmlns="http://www.w3.org/2000/svg" xmlns:xlink="http://www.w3.org/1999/xlink"><defs><rect id="a" x="0" y="0" width="30" height="21.429" rx="2"/></defs><g fill="none" fill-rule="evenodd"><mask id="b" fill="#fff"><use xlink:href="#a"/></mask><use fill="#FFF" xlink:href="#a"/><path fill="#0A17A7" mask="url(#b)" d="M0 0h30v21.429H0z"/><path d="M7.15 14.286H0V7.143h7.15L-2.972.315l1.598-2.368 12.803 8.635v-8.01h7.142v8.01l12.803-8.635L32.972.315 22.85 7.143H30v7.143h-7.15l10.122 6.827-1.598 2.369-12.803-8.636v8.011H11.43v-8.01l-12.803 8.635-1.598-2.369L7.15 14.286z" fill="#FFF" mask="url(#b)"/><path d="M20.001 6.784l13.57-8.927" stroke="#DB1F35" stroke-width=".667" stroke-linecap="round" mask="url(#b)"/><path d="M21.442 22.875l12.165-8.2" stroke="#DB1F35" stroke-width=".667" stroke-linecap="round" mask="url(#b)" transform="matrix(1 0 0 -1 0 37.551)"/><path d="M8.577 6.761L-4.112-1.79" stroke="#DB1F35" stroke-width=".667" stroke-linecap="round" mask="url(#b)"/><path d="M9.954 23.904l-14.066-9.327" stroke="#DB1F35" stroke-width=".667" stroke-linecap="round" mask="url(#b)" transform="matrix(1 0 0 -1 0 38.48)"/><path fill="#E6273E" mask="url(#b)" d="M0 12.857h12.857v8.572h4.286v-8.572H30V8.571H17.143V0h-4.286v8.571H0z"/></g></svg>