<?xml version="1.0" standalone="no"?><!DOCTYPE svg PUBLIC "-//W3C//DTD SVG 1.1//EN" "http://www.w3.org/Graphics/SVG/1.1/DTD/svg11.dtd"><svg t="1710486969001" class="icon" viewBox="0 0 1365 1024" version="1.1" xmlns="http://www.w3.org/2000/svg" p-id="1946" width="30.6591796875" height="23" xmlns:xlink="http://www.w3.org/1999/xlink"><path d="M0 0m157.190104 0l943.140625 0q157.190104 0 157.190104 157.190104l0 628.760416q0 157.190104-157.190104 157.190105l-943.140625 0q-157.190104 0-157.190104-157.190105l0-628.760416q0-157.190104 157.190104-157.190104Z" fill="#F93939" p-id="1947"></path><path d="M1257.520833 0H0v943.140625h1257.520833z" fill="#F93939" p-id="1948"></path><path d="M329.234673 454.593781l-88.026458 48.571742 16.740746-102.959518-71.128522-72.857613 98.401005-14.93306 44.013229-93.685302 44.013229 93.685302L471.570312 327.348392l-71.285712 72.936208 16.897936 102.880923-87.947863-48.571742zM538.926272 188.628125h59.88943v62.876042h-59.88943v-62.876042zM598.894297 314.380208h59.889429v62.876042h-59.889429V314.380208z m0 125.752083h59.889429v62.876042h-59.889429v-62.876042z m-59.88943 125.752084h59.88943V628.760416h-59.88943v-62.876041z" fill="#FFDA2C" p-id="1949"></path></svg>