<svg xmlns="http://www.w3.org/2000/svg" version="1.1" xmlns:xlink="http://www.w3.org/1999/xlink" xmlns:svgjs="http://svgjs.com/svgjs" width="120" height="120" x="0" y="0" viewBox="0 0 110 110" style="enable-background:new 0 0 512 512" xml:space="preserve" class=""><g><g data-name="27. Pie Chart"><circle cx="55" cy="55" r="50" fill="#e7efff" data-original="#e7efff" class=""></circle><circle cx="4" cy="9" r="3" fill="#ff4d69" data-original="#ff4d69"></circle><circle cx="90" cy="4" r="3" fill="#00c99f" data-original="#00c99f"></circle><circle cx="106" cy="102" r="3" fill="#ffa100" data-original="#ffa100"></circle><circle cx="8" cy="106" r="3" fill="#00c99f" data-original="#00c99f"></circle><circle cx="55" cy="55" r="42" fill="#4e6aff" data-original="#4e6aff" class=""></circle><path fill="#8fa2ff" d="M101 55a45.94 45.94 0 0 1-12 31 2 2 0 0 1-2.9.07L55 55z" data-original="#8fa2ff"></path><path fill="#323fd4" d="M105 55H55V5a2 2 0 0 1 2.1-2A52 52 0 0 1 107 52.9a2 2 0 0 1-2 2.1z" data-original="#323fd4"></path><circle cx="55" cy="55" r="27" fill="#ffffff" data-original="#ffffff" class=""></circle><circle cx="55" cy="55" r="21" fill="#ffa100" data-original="#ffa100"></circle><path fill="#ffffff" d="M60 45.09V43a2 2 0 0 0-4 0v2h-3v-2a2 2 0 0 0-4 0v2h-2a2 2 0 0 0 0 4h2v12h-2a2 2 0 0 0 0 4h2v2a2 2 0 0 0 4 0v-2h3v2a2 2 0 0 0 4 0v-2.09A6 6 0 0 0 63.46 55 6 6 0 0 0 60 45.09zM61 51a2 2 0 0 1-2 2h-6v-4h6a2 2 0 0 1 2 2zm-2 10h-6v-4h6a2 2 0 0 1 0 4z" data-original="#ffffff" class=""></path><g fill="#a5bced"><path d="M22 89H10a1 1 0 0 1 0-2h11.59l4.7-4.71a1 1 0 1 1 1.42 1.42l-5 5A1 1 0 0 1 22 89zM16 95h-6a1 1 0 0 1 0-2h6a1 1 0 0 1 0 2zM91 26a1 1 0 0 1-.71-1.71l5-5A1 1 0 0 1 96 19h12a1 1 0 0 1 0 2H96.41l-4.7 4.71A1 1 0 0 1 91 26zM108 15h-6a1 1 0 0 1 0-2h6a1 1 0 0 1 0 2z" fill="#a5bced" data-original="#a5bced"></path></g></g></g></svg>