<svg xmlns="http://www.w3.org/2000/svg" version="1.1" xmlns:xlink="http://www.w3.org/1999/xlink" xmlns:svgjs="http://svgjs.com/svgjs" width="120" height="120" x="0" y="0" viewBox="0 0 110 110" style="enable-background:new 0 0 512 512" xml:space="preserve" class=""><g><g data-name="2. Startup"><circle cx="55" cy="59" r="50" fill="#e7efff" data-original="#e7efff" class=""></circle><circle cx="4" cy="19" r="3" fill="#ff4d69" data-original="#ff4d69" class=""></circle><circle cx="99" cy="4" r="3" fill="#00c99f" data-original="#00c99f"></circle><circle cx="106" cy="96" r="3" fill="#ffa100" data-original="#ffa100"></circle><circle cx="12" cy="106" r="3" fill="#00c99f" data-original="#00c99f"></circle><path fill="#a5bced" d="M100.45 79.85a50 50 0 0 1-90.9 0 12 12 0 0 1 15.6 6.73 13 13 0 0 1 13.47 3.7 11.79 11.79 0 0 1 7.38-1.1V81h18v8.18a11.79 11.79 0 0 1 7.38 1.1 13 13 0 0 1 13.47-3.7 12 12 0 0 1 15.6-6.73z" data-original="#a5bced" class=""></path><path fill="#ff4d69" d="M44 54v26a1 1 0 0 1-1.22 1 17.07 17.07 0 0 0-15 3.89C25.49 86.91 25.5 87 25 87a1 1 0 0 1-1-1v-7a27.29 27.29 0 0 1 18.68-25.92A1 1 0 0 1 44 54zM86 79v7a1 1 0 0 1-1.66.75l-2.11-1.88a17.07 17.07 0 0 0-15-3.89A1 1 0 0 1 66 80V54a1 1 0 0 1 1.32-1A27.29 27.29 0 0 1 86 79z" data-original="#ff4d69" class=""></path><path fill="#4e6aff" d="M74 38v19.87a55 55 0 0 1-5.8 24.58.94.94 0 0 1-.85.55H43.6a.94.94 0 0 1-.82-.5A54.61 54.61 0 0 1 36 56.11V38A45.36 45.36 0 0 1 54.47 1.17a.9.9 0 0 1 1.06 0A45.36 45.36 0 0 1 74 38z" data-original="#4e6aff" class=""></path><path fill="#323fd4" d="M70.56 77a53.8 53.8 0 0 1-2.36 5.45.94.94 0 0 1-.85.55H43.6a.94.94 0 0 1-.82-.5 51.4 51.4 0 0 1-2.64-5.5z" data-original="#323fd4"></path><circle cx="55" cy="35" r="12" fill="#ffa100" data-original="#ffa100"></circle><path fill="#323fd4" d="M55 49a14 14 0 1 1 14-14 14 14 0 0 1-14 14zm0-24a10 10 0 1 0 10 10 10 10 0 0 0-10-10zM66.25 12.3a19 19 0 0 1-22.5 0A43.6 43.6 0 0 1 54.47 1.17a.9.9 0 0 1 1.06 0A43.6 43.6 0 0 1 66.25 12.3z" data-original="#323fd4"></path><path fill="#ff4d69" d="M59 66v12.76a11.2 11.2 0 0 1-3.29 7.95 1 1 0 0 1-1.42 0A11.2 11.2 0 0 1 51 78.76V66a11.2 11.2 0 0 1 3.29-8 1 1 0 0 1 1.42 0A11.2 11.2 0 0 1 59 66z" data-original="#ff4d69" class=""></path><g fill="#fff"><path d="M46 73h-4a1 1 0 0 1 0-2h4a1 1 0 0 1 0 2zM46 69h-4a1 1 0 0 1 0-2h4a1 1 0 0 1 0 2zM68 73h-4a1 1 0 0 1 0-2h4a1 1 0 0 1 0 2zM68 69h-4a1 1 0 0 1 0-2h4a1 1 0 0 1 0 2z" fill="#ffffff" data-original="#ffffff"></path></g><path fill="#ffa100" d="M31.55 18.83c-3 2-3.76 4.39-4.62 6.54a1 1 0 0 1-1.86 0c-.86-2.15-1.64-4.54-4.62-6.54a1 1 0 0 1 0-1.66c3-2 3.76-4.39 4.62-6.54a1 1 0 0 1 1.86 0c.86 2.15 1.64 4.54 4.62 6.54a1 1 0 0 1 0 1.66zM89.55 34.83c-3 2-3.76 4.39-4.62 6.54a1 1 0 0 1-1.86 0c-.86-2.15-1.64-4.54-4.62-6.54a1 1 0 0 1 0-1.66c3-2 3.76-4.39 4.62-6.54a1 1 0 0 1 1.86 0c.86 2.15 1.64 4.54 4.62 6.54a1 1 0 0 1 0 1.66z" data-original="#ffa100"></path><path fill="#ffffff" d="M21 63a7 7 0 0 1-7 7H6.22A50.13 50.13 0 0 1 6 49a8 8 0 0 1 7.93 7A7 7 0 0 1 21 63zM105 57.33H92.78a7 7 0 1 1 .06-14 8 8 0 0 1 6.78-6.91A49.72 49.72 0 0 1 105 57.33zM58 30.18V29a1 1 0 0 0-2 0v1h-2v-1a1 1 0 0 0-2 0v1h-1a1 1 0 0 0 0 2h1v6h-1a1 1 0 0 0 0 2h1v1a1 1 0 0 0 2 0v-1h2v1a1 1 0 0 0 2 0v-1.18A3 3 0 0 0 59.22 35 3 3 0 0 0 58 30.18zM54 32h3a1 1 0 0 1 0 2h-3zm3 6h-3v-2h3a1 1 0 0 1 0 2z" data-original="#ffffff"></path></g></g></svg>