<svg xmlns="http://www.w3.org/2000/svg" version="1.1" xmlns:xlink="http://www.w3.org/1999/xlink" xmlns:svgjs="http://svgjs.com/svgjs" width="120" height="120" x="0" y="0" viewBox="0 0 110 110" style="enable-background:new 0 0 512 512" xml:space="preserve" class=""><g><g data-name="23. Analytics"><path fill="#e7efff" d="M101 59A50 50 0 1 1 51 9a49.86 49.86 0 0 1 50 50z" data-original="#e7efff" class=""></path><circle cx="9" cy="4" r="3" fill="#ff4d69" data-original="#ff4d69"></circle><circle cx="106" cy="34" r="3" fill="#00c99f" data-original="#00c99f"></circle><circle cx="89" cy="104" r="3" fill="#ffa100" data-original="#ffa100"></circle><circle cx="8" cy="106" r="3" fill="#00c99f" data-original="#00c99f"></circle><circle cx="80" cy="21" r="19" fill="#ffa100" data-original="#ffa100"></circle><path fill="#ffffff" d="M85 11.35V10a2 2 0 0 0-4 0v1h-3v-1a2 2 0 0 0-4 0v1h-1a2 2 0 0 0 0 4h1v12h-1a2 2 0 0 0 0 4h1v1a2 2 0 0 0 4 0v-1h3v1a2 2 0 0 0 4 0v-1.35A6 6 0 0 0 87.46 21 6 6 0 0 0 85 11.35zM78 15h5a2 2 0 0 1 0 4h-5zm5 12h-5v-4h5a2 2 0 0 1 0 4z" data-original="#ffffff" class=""></path><path fill="#4e6aff" d="M14 93V72s7-11 14-11c9 0 13 9 19 9 8 0 10-14 19-14s9 11 14 11c7 0 13-19 24-19v45z" data-original="#4e6aff"></path><path fill="#8fa2ff" d="M109 93a3 3 0 0 1-3 3H17.38A49.31 49.31 0 0 1 11 89V29a48.6 48.6 0 0 1 6-6.66V90h89a3 3 0 0 1 3 3z" data-original="#8fa2ff"></path><path fill="#a5bced" d="M52 30H26a2 2 0 0 0-2 2v16a2 2 0 0 0 2 2h1.59l1.7 1.71a1 1 0 0 0 1.42 0l1.7-1.71H52a2 2 0 0 0 2-2V32a2 2 0 0 0-2-2z" data-original="#a5bced" class=""></path><rect width="8" height="8" x="27" y="33" fill="#4e6aff" rx="1" data-original="#4e6aff"></rect><path fill="#ffffff" d="M50 35H39a1 1 0 0 1 0-2h11a1 1 0 0 1 0 2zM50 39H39a1 1 0 0 1 0-2h11a1 1 0 0 1 0 2zM50 43H39a1 1 0 0 1 0-2h11a1 1 0 0 1 0 2zM50 47H28a1 1 0 0 1 0-2h22a1 1 0 0 1 0 2z" data-original="#ffffff" class=""></path><g fill="#323fd4"><path d="M92 48h-2a1 1 0 0 0 0 2h2a1 1 0 0 0 0-2zM55 56h-2a1 1 0 0 0 0 2h2a1 1 0 0 0 0-2zM49 56h-2a1 1 0 0 0 0 2h2a1 1 0 0 0 0-2zM43 56h-2a1 1 0 0 0 0 2h2a1 1 0 0 0 0-2zM37 56h-2a1 1 0 0 0 0 2h2a1 1 0 0 0 0-2zM86 48h-2a1 1 0 0 0 0 2h2a1 1 0 0 0 0-2zM80 48h-2a1 1 0 0 0 0 2h2a1 1 0 0 0 0-2zM74 48h-2a1 1 0 0 0 0 2h2a1 1 0 0 0 0-2zM68 48h-2a1 1 0 0 0 0 2h2a1 1 0 0 0 0-2zM62 48h-2a1 1 0 0 0 0 2h2a1 1 0 0 0 0-2z" fill="#323fd4" data-original="#323fd4"></path></g></g></g></svg>