<?xml version="1.0" encoding="utf-8"?>
<!-- Generator: Adobe Illustrator 27.9.0, SVG Export Plug-In . SVG Version: 6.00 Build 0)  -->
<svg version="1.1" id="图层_1" xmlns="http://www.w3.org/2000/svg" xmlns:xlink="http://www.w3.org/1999/xlink" x="0px" y="0px"
	 viewBox="0 0 6114.2 1648.81" enable-background="new 0 0 6114.2 1648.81" xml:space="preserve">
<g>
	<circle fill="#1A182E" cx="899.55" cy="793.47" r="607.79"/>
	<g>
		<g>
			
				<linearGradient id="SVGID_1_" gradientUnits="userSpaceOnUse" x1="1138.4961" y1="1123.8843" x2="1641.1025" y2="435.5056" gradientTransform="matrix(1 0 0 1 -525.4235 -45.8307)">
				<stop  offset="0.2592" style="stop-color:#DC14AF"/>
				<stop  offset="1" style="stop-color:#2CD6DB"/>
			</linearGradient>
			<rect x="795.59" y="327.17" fill="url(#SVGID_1_)" width="45.38" height="939.65"/>
		</g>
		<g>
			
				<linearGradient id="SVGID_00000083784034389605028470000009262452292366088346_" gradientUnits="userSpaceOnUse" x1="1058.9705" y1="1123.8843" x2="1561.577" y2="435.5056" gradientTransform="matrix(1 0 0 1 -525.4235 -45.8307)">
				<stop  offset="0.2592" style="stop-color:#DC14AF"/>
				<stop  offset="1" style="stop-color:#2CD6DB"/>
			</linearGradient>
			
				<rect x="716.06" y="327.17" fill="url(#SVGID_00000083784034389605028470000009262452292366088346_)" width="45.38" height="939.65"/>
		</g>
		<g>
			
				<linearGradient id="SVGID_00000083078902263035951190000006207159991372957372_" gradientUnits="userSpaceOnUse" x1="978.5991" y1="1122.84" x2="1481.2056" y2="434.4613" gradientTransform="matrix(1 0 0 1 -525.4235 -45.8307)">
				<stop  offset="0.2592" style="stop-color:#DC14AF"/>
				<stop  offset="1" style="stop-color:#2CD6DB"/>
			</linearGradient>
			
				<rect x="635.69" y="326.13" fill="url(#SVGID_00000083078902263035951190000006207159991372957372_)" width="45.38" height="939.65"/>
		</g>
		
			<linearGradient id="SVGID_00000122685553473422624900000003859821802983689098_" gradientUnits="userSpaceOnUse" x1="789.0182" y1="1223.4139" x2="1203.1809" y2="444.4872">
			<stop  offset="2.237672e-07" style="stop-color:#DC14AF"/>
			<stop  offset="1" style="stop-color:#2CD6DB"/>
		</linearGradient>
		
			<path fill="none" stroke="url(#SVGID_00000122685553473422624900000003859821802983689098_)" stroke-width="50" stroke-miterlimit="10" d="
			M873.45,1243.31c244.92,0,443.47-198.55,443.47-443.47s-198.55-443.47-443.47-443.47"/>
		
			<linearGradient id="SVGID_00000119796490748325806730000003476005921341722531_" gradientUnits="userSpaceOnUse" x1="803.5153" y1="1146.7944" x2="1146.5603" y2="501.6204">
			<stop  offset="2.237672e-07" style="stop-color:#DC14AF"/>
			<stop  offset="1" style="stop-color:#2CD6DB"/>
		</linearGradient>
		
			<path fill="none" stroke="url(#SVGID_00000119796490748325806730000003476005921341722531_)" stroke-width="50" stroke-miterlimit="10" d="
			M873.45,1158.98c200.49,0,363.03-162.53,363.03-363.03c0-200.49-162.53-363.03-363.03-363.03"/>
		
			<linearGradient id="SVGID_00000057128015192614535650000010286252174277602749_" gradientUnits="userSpaceOnUse" x1="818.9673" y1="1069.2687" x2="1086.2096" y2="566.6591">
			<stop  offset="2.237672e-07" style="stop-color:#DC14AF"/>
			<stop  offset="1" style="stop-color:#2CD6DB"/>
		</linearGradient>
		
			<path fill="none" stroke="url(#SVGID_00000057128015192614535650000010286252174277602749_)" stroke-width="50" stroke-miterlimit="10" d="
			M873.45,1073.24c153.14,0,277.28-124.14,277.28-277.28c0-153.14-124.14-277.28-277.28-277.28"/>
	</g>
</g>
<g>
	
		<linearGradient id="SVGID_00000183250526202861416170000007464213614230002367_" gradientUnits="userSpaceOnUse" x1="1796.826" y1="1140.6375" x2="2425.0808" y2="512.3827">
		<stop  offset="0.3263" style="stop-color:#DC14AF"/>
		<stop  offset="0.3578" style="stop-color:#D31EB1"/>
		<stop  offset="0.6748" style="stop-color:#7A80C8"/>
		<stop  offset="0.8956" style="stop-color:#42BED6"/>
		<stop  offset="1" style="stop-color:#2CD6DB"/>
	</linearGradient>
	
		<path fill="url(#SVGID_00000183250526202861416170000007464213614230002367_)" stroke="#231815" stroke-width="0.5" stroke-miterlimit="10" d="
		M1964.29,491.98v667c-29.97,0-77,2.66-141.12,8v-11.31c32.48-8.88,55.48-27.91,68.98-57.09c13.06-27.91,19.61-85.83,19.61-173.78
		V662.82c0-53.7-6.55-92.81-19.61-117.34c-13.09-23.86-36.08-40.61-68.98-50.25v-11.25C1878.01,488.43,1925.04,491.1,1964.29,491.98
		z M2047.84,1158.98h-38.61v-667c58.16-1.14,98.84-2.47,122.03-4c34.95-2.66,58.97-4,72.03-4c63.19,0,117.09,14.38,161.75,43.12
		c44.33,29.62,77.69,68.33,100.06,116.12c21.94,46.97,32.92,106.61,32.92,178.95c0,110-26.44,195.05-79.28,255.11
		c-53.08,59.8-124.89,89.69-215.45,89.69c-42.12,0-89.73-2.67-142.8-8C2058.38,1158.98,2054.17,1158.98,2047.84,1158.98z
		 M2071.87,549.91c-6.75,19.05-10.11,85.69-10.11,199.91v154.84c0,92.66,6.11,160.36,18.33,203.08
		c32.42,10.16,69.48,15.23,111.2,15.23c77.92,0,139.2-24.75,183.86-74.25c45.06-49.92,67.61-123.33,67.61-220.22
		c0-94.75-22.33-168.38-66.97-220.84c-44.66-52.45-110.38-78.69-197.14-78.69C2133.57,528.98,2097.98,535.96,2071.87,549.91z
		 M2439.6,1110.32c70.28-53.73,105.44-146.83,105.44-279.28c0-129.48-28.81-220.89-86.41-274.22
		c48.28,31.75,84.7,70.47,109.27,116.17s36.86,97.75,36.86,156.14C2604.76,951.01,2549.7,1044.73,2439.6,1110.32z"/>
	
		<linearGradient id="SVGID_00000027576122723061828520000003760095881251194261_" gradientUnits="userSpaceOnUse" x1="2772.3965" y1="1150.4813" x2="3528.4043" y2="394.4735">
		<stop  offset="0.3263" style="stop-color:#DC14AF"/>
		<stop  offset="0.3578" style="stop-color:#D31EB1"/>
		<stop  offset="0.6748" style="stop-color:#7A80C8"/>
		<stop  offset="0.8956" style="stop-color:#42BED6"/>
		<stop  offset="1" style="stop-color:#2CD6DB"/>
	</linearGradient>
	
		<path fill="url(#SVGID_00000027576122723061828520000003760095881251194261_)" stroke="#231815" stroke-width="0.5" stroke-miterlimit="10" d="
		M2789.53,491.98l729.02,623.41v51.59h-12.5l-573.5-488.67v294.98c0,64.28,8.22,108.91,24.69,133.84
		c16.44,24.95,42.39,41.23,77.83,48.84v11c-63.72-5.34-106.95-8-129.73-8c-25.73,0-64.55,2.66-116.44,8v-11
		c36.28-8.45,60.95-25.58,74.05-51.39c13.06-25.78,19.61-71.45,19.61-137.02l-0.62-331.12l-45.56-38.7
		c-63.28-54.12-116.66-88.39-160.11-102.77v-11L2789.53,491.98z M3518.55,1053.46l-657.52-561.48h74.69l532.83,453.39V682.12
		c0-43.97-2.97-77.81-8.88-101.5c-5.92-22.41-17.95-41.23-36.11-56.45c-18.12-14.8-41.31-24.53-69.55-29.19v-11
		c0.41,0,7.75,0.67,22.03,2c55.14,4,92.61,6,112.41,6c18.09,0,61.25-2.66,129.45-8v11c-21.94,2.97-41.14,12.06-57.59,27.28
		c-16.03,14.39-27,32.16-32.91,53.31c-5.91,21.58-8.86,51.83-8.86,90.75V1053.46z"/>
	
		<linearGradient id="SVGID_00000139992629261806205130000013673997920725982895_" gradientUnits="userSpaceOnUse" x1="3701.4043" y1="1249.9813" x2="4268.4668" y2="682.9188">
		<stop  offset="0.3263" style="stop-color:#DC14AF"/>
		<stop  offset="0.3578" style="stop-color:#D31EB1"/>
		<stop  offset="0.6748" style="stop-color:#7A80C8"/>
		<stop  offset="0.8956" style="stop-color:#42BED6"/>
		<stop  offset="1" style="stop-color:#2CD6DB"/>
	</linearGradient>
	
		<path fill="url(#SVGID_00000139992629261806205130000013673997920725982895_)" stroke="#231815" stroke-width="0.5" stroke-miterlimit="10" d="
		M4153.42,1006.1l-56.28-118.12h-238.42l-60.08,118.12l-3.16,8.25c-0.42,0.44-3.58,6.58-9.48,18.42
		c-8.86,17.78-13.28,35.98-13.28,54.61c0,32.19,17.7,55.05,53.12,68.59v11c-7.17,0-19.61-1.11-37.31-3.33
		c-24.88-3.12-47.23-4.67-67.05-4.67c-18.12,0-40.47,1.33-67.03,4c-18.12,2.66-30.14,4-36.05,4v-11
		c46.38-23.69,88.53-72.55,126.48-146.59l209.95-409.95c-16.03-32.5-38.06-57.61-66.09-75.33s-60.81-27.44-98.33-29.12v-11h22.14
		c19.81,0,47,1.34,81.58,4c36.25,2.67,59.86,4,70.83,4l319.36,667c-40.91,0.88-90.02,3.55-147.34,8v-11
		c32.03-5.5,48.06-22.86,48.06-52.08C4185.04,1082.31,4174.49,1049.71,4153.42,1006.1z M3883.38,839.98h190.98l-91.7-192.44
		L3883.38,839.98z M4334.92,1158.98l-319.36-667h61.97c8.44,21.73,20.23,49.11,35.42,82.12c16.86,35.88,26.34,57.19,28.45,63.94
		c2.09,3.81,4,8.23,5.69,13.3l148.62,309.12c51.84,107.5,107.08,172.67,165.69,195.52v11
		C4404.06,1161.63,4361.88,1158.98,4334.92,1158.98z"/>
</g>
</svg>
