<?xml version="1.0" encoding="utf-8"?>
<!-- Generator: Adobe Illustrator 28.3.0, SVG Export Plug-In . SVG Version: 6.00 Build 0)  -->
<svg version="1.1" id="图层_1" xmlns="http://www.w3.org/2000/svg" xmlns:xlink="http://www.w3.org/1999/xlink" x="0px" y="0px"
	 viewBox="0 0 648 753.4" enable-background="new 0 0 648 753.4" xml:space="preserve">
<rect x="36.8" y="176.5" fill="#357FFA" width="30.2" height="401.7"/>
<path fill="#357FFA" d="M616.9,377.7c0,69.9-22.5,134.5-60.5,187.1c-16.7,23-36.3,43.7-58.4,61.5c-18.4,14.9-38.5,27.7-60,38.2
	c-36.3,17.8-76.6,28.9-119,31.7H162.3v-31.7h115.3c6.6,0.5,13.3,0.7,20.1,0.7c6.7,0,13.4-0.2,20.1-0.7
	c45.1-3.1,87.4-16.6,124.4-38.2c27.9-16.3,52.9-37.1,73.8-61.5c43.1-50.3,69.2-115.6,69.2-187.1c0-71.4-26-136.8-69.2-187
	c-20.9-24.4-45.9-45.3-73.8-61.5c-42.5-24.8-91.9-38.9-144.6-38.9H162.3V58.6h135.4c49.7,0,96.8,11.4,138.8,31.7
	c22,10.7,42.6,23.7,61.5,38.9c22.1,17.8,41.8,38.5,58.4,61.5C594.4,243.3,616.9,307.9,616.9,377.7z"/>
<polygon fill="#357FFA" points="131,664.6 131,746.3 100.8,721.6 100.8,664.6 "/>
<path fill="#357FFA" d="M73,133.4c0,5.7-2.3,10.9-6,14.7c-3.8,3.9-9.1,6.3-14.9,6.3c-6,0-11.4-2.5-15.2-6.6
	c-3.6-3.7-5.7-8.8-5.7-14.4c0-1.4,0.1-2.9,0.4-4.2c0.8-3.9,2.7-7.4,5.3-10.2c3.8-4,9.2-6.6,15.2-6.6c5.8,0,11.1,2.4,14.9,6.3
	c2.8,2.8,4.8,6.5,5.6,10.5C72.9,130.5,73,131.9,73,133.4z"/>
<path fill="#357FFA" d="M73,69.3c0,5.7-2.3,10.9-6,14.7c-3.8,3.8-9.1,6.2-14.9,6.2c-6,0-11.4-2.5-15.2-6.6
	c-3.6-3.7-5.7-8.8-5.7-14.4c0-3.9,1.1-7.6,2.9-10.7c0.8-1.3,1.7-2.6,2.8-3.7c3.8-4,9.2-6.6,15.2-6.6c5.8,0,11.1,2.4,14.9,6.3
	c1.2,1.2,2.2,2.5,3.1,4C71.9,61.7,73,65.4,73,69.3z"/>
<path fill="#357FFA" d="M73,685.5c0,3.9-1.1,7.6-3,10.7c-0.9,1.4-1.9,2.8-3.1,4c-3.8,3.9-9.1,6.3-14.9,6.3c-6,0-11.4-2.5-15.2-6.6
	c-1.1-1.1-2-2.3-2.8-3.7c-1.9-3.2-3-6.8-3-10.7c0-5.6,2.2-10.7,5.7-14.4c3.6-3.8,8.6-6.3,14.2-6.5h2.1c5.4,0.3,10.3,2.6,13.9,6.2
	C70.7,674.6,73,679.8,73,685.5z"/>
<path fill="#357FFA" d="M53.1,664.6H51c0.3,0,0.7,0,1.1,0S52.8,664.5,53.1,664.6z"/>
<path fill="#357FFA" d="M73,621.4c0,1.7-0.2,3.4-0.6,4.9c-0.9,3.7-2.8,7.1-5.4,9.8c-3.8,3.9-9.1,6.3-14.9,6.3
	c-6,0-11.4-2.5-15.2-6.6c-2.5-2.6-4.3-5.8-5.1-9.5c-0.4-1.6-0.6-3.2-0.6-4.9c0-5.6,2.2-10.7,5.7-14.4c3.8-4,9.2-6.6,15.2-6.6
	c5.8,0,11.1,2.4,14.9,6.3C70.7,610.5,73,615.7,73,621.4z"/>
<path fill="#357FFA" d="M137.1,621.4c0,1.7-0.2,3.4-0.6,4.9c-0.9,3.8-2.9,7.2-5.5,9.9c-3.2,3.2-7.4,5.4-12.1,6
	c-0.9,0.1-1.8,0.2-2.8,0.2c-6,0-11.5-2.6-15.3-6.7c-2.4-2.6-4.2-5.8-5-9.4c-0.1-0.6-0.3-1.1-0.4-1.7c-0.2-1.1-0.2-2.1-0.2-3.2
	c0-5.5,2.1-10.6,5.6-14.3c3.8-4,9.1-6.6,15-6.6h0c0.1,0,0.2,0,0.3,0c5.8,0,11,2.3,14.8,6.2c2.5,2.5,4.4,5.6,5.3,9.1
	C136.8,617.5,137.1,619.4,137.1,621.4z"/>
<path fill="#357FFA" d="M137.1,133.4c0,2.3-0.4,4.5-1.1,6.6c-1,3.1-2.8,5.9-5.1,8.2c-3.7,3.7-8.7,6-14.2,6.1c-0.2,0-0.4,0-0.6,0
	c-6,0-11.5-2.6-15.3-6.7c-3.5-3.7-5.6-8.8-5.6-14.3c0-0.8,0-1.6,0.1-2.4c0.1-0.6,0.2-1.2,0.3-1.8c0.8-3.8,2.6-7.3,5.2-10.1
	c3.8-4.1,9.3-6.7,15.3-6.7c1.3,0,2.5,0.1,3.7,0.3c4.3,0.8,8.2,2.9,11.2,5.8c2.8,2.9,4.9,6.5,5.7,10.6
	C136.9,130.5,137.1,131.9,137.1,133.4z"/>
<path fill="#357FFA" d="M546.3,377.7c0,74.6-32.8,141.5-84.8,187.1c-43.8,38.3-101,61.5-163.8,61.5H162.3v-61.5h135.4
	c103.3,0,187.1-83.8,187.1-187.1s-83.8-187-187.1-187H162.3v-61.5h135.4c62.7,0,120,23.2,163.8,61.5
	C513.5,236.3,546.3,303.2,546.3,377.7z"/>
<rect x="100.8" y="176.5" fill="#357FFA" width="30.2" height="401.7"/>
<polygon fill="#357FFA" points="131,7.1 131,90.2 100.8,90.2 100.8,30.2 "/>
</svg>
