<svg xmlns="http://www.w3.org/2000/svg" version="1.1" xmlns:xlink="http://www.w3.org/1999/xlink" xmlns:svgjs="http://svgjs.com/svgjs" width="120" height="120" x="0" y="0" viewBox="0 0 110 110" style="enable-background:new 0 0 512 512" xml:space="preserve" class=""><g><g data-name="26. Cryptocurrency"><circle cx="55" cy="59" r="50" fill="#e7efff" data-original="#e7efff" class=""></circle><circle cx="9" cy="4" r="3" fill="#ff4d69" data-original="#ff4d69"></circle><circle cx="106" cy="11" r="3" fill="#00c99f" data-original="#00c99f"></circle><circle cx="98" cy="106" r="3" fill="#ffa100" data-original="#ffa100" class=""></circle><circle cx="4" cy="98" r="3" fill="#00c99f" data-original="#00c99f"></circle><circle cx="55" cy="22" r="19" fill="#ffa100" data-original="#ffa100" class=""></circle><path fill="#ffffff" d="M60 12.35V11a2 2 0 0 0-4 0v1h-3v-1a2 2 0 0 0-4 0v1h-1a2 2 0 0 0 0 4h1v12h-1a2 2 0 0 0 0 4h1v1a2 2 0 0 0 4 0v-1h3v1a2 2 0 0 0 4 0v-1.35A6 6 0 0 0 62.46 22 6 6 0 0 0 60 12.35zM53 16h5a2 2 0 0 1 0 4h-5zm5 12h-5v-4h5a2 2 0 0 1 0 4z" data-original="#ffffff" class=""></path><path fill="#4e6aff" d="M68 63v44.28a49.93 49.93 0 0 1-48-12.59V63z" data-original="#4e6aff"></path><path fill="#323fd4" d="M90 63v31.69a49.85 49.85 0 0 1-22 12.59V63z" data-original="#323fd4"></path><path fill="#8fa2ff" d="M20 63 10 73h48l10-10z" data-original="#8fa2ff" class=""></path><path fill="#4e6aff" d="m90 63 10 10H78L68 63z" data-original="#4e6aff"></path><circle cx="26" cy="45" r="12" fill="#ffa100" data-original="#ffa100" class=""></circle><circle cx="84" cy="45" r="12" fill="#ffa100" data-original="#ffa100" class=""></circle><path fill="#ffffff" d="M26.5 44h-1a1.5 1.5 0 0 1 0-3H29a1 1 0 0 0 0-2h-2v-1a1 1 0 0 0-2 0v1a3.49 3.49 0 0 0 .5 7h1a1.5 1.5 0 0 1 0 3H23a1 1 0 0 0 0 2h2v1a1 1 0 0 0 2 0v-1a3.49 3.49 0 0 0-.5-7zM89.81 44.42l-5-7a1 1 0 0 0-1.62 0l-5 7a1 1 0 0 0 0 1.16l5 7a1 1 0 0 0 1.62 0l5-7a1 1 0 0 0 0-1.16zM84 39.72l3.29 4.6L84 45l-3.29-.66zm0 10.56-2.72-3.8 2.52.5c.27.05.11.06 2.92-.5z" data-original="#ffffff" class=""></path><g fill="#a5bced"><path d="M32 28a1 1 0 0 1-1-1v-4a1 1 0 0 1 2 0v4a1 1 0 0 1-1 1zM78 28a1 1 0 0 1-1-1v-4a1 1 0 0 1 2 0v4a1 1 0 0 1-1 1zM14 61a1 1 0 0 1-1-1v-4a1 1 0 0 1 2 0v4a1 1 0 0 1-1 1zM40.06 57a1 1 0 0 1-1-1v-4a1 1 0 0 1 2 0v4a1 1 0 0 1-1 1zM70 57a1 1 0 0 1-1-1v-4a1 1 0 0 1 2 0v4a1 1 0 0 1-1 1zM96 61a1 1 0 0 1-1-1v-4a1 1 0 0 1 2 0v4a1 1 0 0 1-1 1z" fill="#a5bced" data-original="#a5bced" class=""></path></g><path fill="#8fa2ff" d="M41 96v6a2 2 0 0 1-2 2h-5.78A49.45 49.45 0 0 1 25 99v-3a2 2 0 0 1 2-2h12a2 2 0 0 1 2 2zM62 96H50a1 1 0 0 1 0-2h12a1 1 0 0 1 0 2zM62 102H50a1 1 0 0 1 0-2h12a1 1 0 0 1 0 2z" data-original="#8fa2ff" class=""></path></g></g></svg>