<svg xmlns="http://www.w3.org/2000/svg" version="1.1" xmlns:xlink="http://www.w3.org/1999/xlink" xmlns:svgjs="http://svgjs.com/svgjs" width="120" height="120" x="0" y="0" viewBox="0 0 110 110" style="enable-background:new 0 0 512 512" xml:space="preserve" class=""><g><g data-name="3. Miining Cart"><circle cx="55" cy="59" r="50" fill="#e7efff" data-original="#e7efff" class=""></circle><circle cx="8" cy="4" r="3" fill="#ff4d69" data-original="#ff4d69"></circle><circle cx="106" cy="16" r="3" fill="#00c99f" data-original="#00c99f"></circle><circle cx="97" cy="106" r="3" fill="#ffa100" data-original="#ffa100"></circle><circle cx="4" cy="96" r="3" fill="#00c99f" data-original="#00c99f"></circle><path fill="#a5bced" d="M95 89a48.07 48.07 0 0 1-5.31 6H20.32A48.07 48.07 0 0 1 15 89z" data-original="#a5bced"></path><path fill="#7f96d1" d="m48.59 24.41 3.82-3.82a2 2 0 0 1 1.42-.59h8.42a2 2 0 0 1 2 1.74L66 35H48v-9.17a2 2 0 0 1 .59-1.42zM89.68 95a50 50 0 0 1-69.36 0z" data-original="#7f96d1"></path><path fill="#4e6aff" d="m89 43-5 36H26l-5-36z" data-original="#4e6aff" class=""></path><circle cx="55" cy="61" r="13" fill="#ffa100" data-original="#ffa100"></circle><path fill="#323fd4" d="M55 76a15 15 0 1 1 15-15 15 15 0 0 1-15 15zm0-26a11 11 0 1 0 11 11 11 11 0 0 0-11-11z" data-original="#323fd4" class=""></path><rect width="64" height="6" x="23" y="79" fill="#8fa2ff" rx="1" data-original="#8fa2ff"></rect><rect width="76" height="8" x="17" y="35" fill="#323fd4" rx="2" data-original="#323fd4" class=""></rect><circle cx="35" cy="82" r="7" fill="#323fd4" data-original="#323fd4" class=""></circle><circle cx="35" cy="82" r="3" fill="#ffffff" data-original="#ffffff"></circle><circle cx="75" cy="82" r="7" fill="#323fd4" data-original="#323fd4" class=""></circle><circle cx="75" cy="82" r="3" fill="#ffffff" data-original="#ffffff"></circle><path fill="#4e6aff" d="M23 81h-2.18a3 3 0 1 0 0 2H23z" data-original="#4e6aff" class=""></path><circle cx="18" cy="82" r="1" fill="#e7efff" data-original="#e7efff" class=""></circle><path fill="#4e6aff" d="M87 81h2.18a3 3 0 1 1 0 2H87z" data-original="#4e6aff" class=""></path><circle cx="92" cy="82" r="1" fill="#e7efff" data-original="#e7efff" class=""></circle><path fill="#a5bced" d="M49 35H24l1.59-5.55A2 2 0 0 1 27.51 28H32l4.4-6.16A2 2 0 0 1 38 21h8.11a2 2 0 0 1 2 1.86z" data-original="#a5bced"></path><path fill="#7f96d1" d="M39 27a1 1 0 0 1-1 1h-6l1.43-2H38a1 1 0 0 1 1 1z" data-original="#7f96d1"></path><path fill="#a5bced" d="M86 35H63v-8a2 2 0 0 1 2-2h7.76a2 2 0 0 1 1.79 1.11L76 29h4.93a2 2 0 0 1 1.66.89z" data-original="#a5bced"></path><path fill="#7f96d1" d="M76 29h-6a1 1 0 0 1 0-2h5z" data-original="#7f96d1"></path><path fill="#ffa100" d="m30.6 18.8-1.4 1.05a8.23 8.23 0 0 0-3 4.54l-.21.85a1 1 0 0 1-1.94 0l-.21-.85c-.84-3.08-2.74-4.31-4.44-5.59a1 1 0 0 1 .15-1.69 8.12 8.12 0 0 0 4.35-5.69l.1-.62a1 1 0 0 1 2 0l.12.62a8.12 8.12 0 0 0 4.35 5.69 1 1 0 0 1 .13 1.69zM86.6 14.8l-1.4 1a8.17 8.17 0 0 0-3 4.54l-.21.85a1 1 0 0 1-1.94 0l-.21-.85c-.76-3.06-2.72-4.32-4.42-5.59a1 1 0 0 1 .15-1.69 8.12 8.12 0 0 0 4.33-5.64l.1-.62a1 1 0 0 1 2 0l.12.62a8.12 8.12 0 0 0 4.35 5.69 1 1 0 0 1 .13 1.69z" data-original="#ffa100"></path><g fill="#fff"><circle cx="28" cy="49" r="2" fill="#ffffff" data-original="#ffffff"></circle><circle cx="36" cy="49" r="2" fill="#ffffff" data-original="#ffffff"></circle><path d="M58.94 61a3.48 3.48 0 0 0-.94-5.65V54a1 1 0 0 0-2 0v1h-2v-1a1 1 0 0 0-2 0v1h-1a1 1 0 0 0 0 2h1v8h-1a1 1 0 0 0 0 2h1v1a1 1 0 0 0 2 0v-1h2v1a1 1 0 0 0 2 0v-1.35a3.48 3.48 0 0 0 .94-5.65zM54 57h2.5a1.5 1.5 0 0 1 0 3H54zm2.5 8H54v-3h2.5a1.5 1.5 0 0 1 0 3z" fill="#ffffff" data-original="#ffffff"></path></g></g></g></svg>