<svg xmlns="http://www.w3.org/2000/svg" version="1.1" xmlns:xlink="http://www.w3.org/1999/xlink" xmlns:svgjs="http://svgjs.com/svgjs" width="120" height="120" x="0" y="0" viewBox="0 0 110 110" style="enable-background:new 0 0 512 512" xml:space="preserve" class=""><g><g data-name="10. Profits"><circle cx="55" cy="59" r="50" fill="#e7efff" data-original="#e7efff" class=""></circle><circle cx="42" cy="4" r="3" fill="#ff4d69" data-original="#ff4d69"></circle><circle cx="106" cy="13" r="3" fill="#00c99f" data-original="#00c99f"></circle><circle cx="98" cy="106" r="3" fill="#ffa100" data-original="#ffa100"></circle><circle cx="4" cy="95" r="3" fill="#00c99f" data-original="#00c99f"></circle><path fill="#4e6aff" d="M41 93h28a4 4 0 0 1 4 4v2H37v-2a4 4 0 0 1 4-4zM14 75h82v4a6 6 0 0 1-6 6H20a6 6 0 0 1-6-6v-4z" data-original="#4e6aff"></path><path fill="#ffffff" d="M58 82h-6a2 2 0 0 1 0-4h6a2 2 0 0 1 0 4z" data-original="#ffffff" class=""></path><path fill="#323fd4" d="M65 93H45a10.23 10.23 0 0 0 3-7.24V85h14v.76A10.25 10.25 0 0 0 65 93z" data-original="#323fd4"></path><path fill="#8fa2ff" d="M20 17h70a6 6 0 0 1 6 6v52H14V23a6 6 0 0 1 6-6z" data-original="#8fa2ff" class=""></path><path fill="#a5bced" d="M85 99a50 50 0 0 1-60 0z" data-original="#a5bced" class=""></path><rect width="74" height="50" x="18" y="21" fill="#ffffff" rx="2" data-original="#ffffff" class=""></rect><circle cx="21" cy="22" r="19" fill="#ffa100" data-original="#ffa100"></circle><path fill="#ffffff" d="M26 12.35V11a2 2 0 0 0-4 0v1h-3v-1a2 2 0 0 0-4 0v1h-1a2 2 0 0 0 0 4h1v12h-1a2 2 0 0 0 0 4h1v1a2 2 0 0 0 4 0v-1h3v1a2 2 0 0 0 4 0v-1.35A6 6 0 0 0 28.46 22 6 6 0 0 0 26 12.35zM19 16h5a2 2 0 0 1 0 4h-5zm5 12h-5v-4h5a2 2 0 0 1 0 4z" data-original="#ffffff" class=""></path><rect width="10" height="14" x="26" y="51" fill="#8fa2ff" rx="2" data-original="#8fa2ff" class=""></rect><rect width="10" height="20" x="42" y="45" fill="#4e6aff" rx="2" data-original="#4e6aff"></rect><rect width="10" height="26" x="58" y="39" fill="#4e6aff" rx="2" data-original="#4e6aff"></rect><rect width="10" height="32" x="74" y="33" fill="#323fd4" rx="2" data-original="#323fd4"></rect><path fill="#ffa100" d="M81 29c-.55 0-.69-.27-2-1.59l-1.29 1.3a1 1 0 0 1-1.42-1.42l2-2a1 1 0 0 1 1.42 0l2 2A1 1 0 0 1 81 29z" data-original="#ffa100"></path><g fill="#a5bced"><rect width="12" height="4" x="43" y="25" rx="1" fill="#a5bced" data-original="#a5bced" class=""></rect><path d="M48 33h-4a1 1 0 0 1 0-2h4a1 1 0 0 1 0 2z" fill="#a5bced" data-original="#a5bced" class=""></path></g></g></g></svg>