<svg xmlns="http://www.w3.org/2000/svg" version="1.1" xmlns:xlink="http://www.w3.org/1999/xlink" xmlns:svgjs="http://svgjs.com/svgjs" width="120" height="120" x="0" y="0" viewBox="0 0 110 110" style="enable-background:new 0 0 512 512" xml:space="preserve" class=""><g><g data-name="5. E-wallet"><circle cx="55" cy="59" r="50" fill="#e7efff" data-original="#e7efff" class=""></circle><circle cx="4" cy="13" r="3" fill="#ff4d69" data-original="#ff4d69"></circle><circle cx="98" cy="4" r="3" fill="#00c99f" data-original="#00c99f"></circle><circle cx="106" cy="97" r="3" fill="#ffa100" data-original="#ffa100" class=""></circle><circle cx="4" cy="97" r="3" fill="#00c99f" data-original="#00c99f"></circle><path fill="#4e6aff" d="M95 49v40a49.77 49.77 0 0 1-12.88 12H27.88A49.77 49.77 0 0 1 15 89V39l7 6h69a4 4 0 0 1 4 4z" data-original="#4e6aff" class=""></path><path fill="#323fd4" d="M85 45H21a6 6 0 0 1 0-12h60a4 4 0 0 1 4 4z" data-original="#323fd4"></path><circle cx="55" cy="23" r="19" fill="#ffa100" data-original="#ffa100" class=""></circle><path fill="#323fd4" d="M97 67v12a2 2 0 0 1-2 2H82a8 8 0 0 1 0-16h13a2 2 0 0 1 2 2z" data-original="#323fd4"></path><circle cx="81" cy="73" r="3" fill="#ffffff" data-original="#ffffff" class=""></circle><g fill="#8fa2ff"><path d="M38 74a4 4 0 0 1-7.45 2H15v-4h15.55A4 4 0 0 1 38 74zM46 57a4 4 0 0 1-7.45 2h-6.49a2 2 0 0 0-1.63.84l-2.61 3.65A6 6 0 0 1 22.94 66H15v-4h7.94a2 2 0 0 0 1.63-.84l2.61-3.65A6 6 0 0 1 32.06 55h6.49A4 4 0 0 1 46 57zM46 91a4 4 0 0 1-7.45 2h-6.49a6 6 0 0 1-4.88-2.51l-2.61-3.65a2 2 0 0 0-1.63-.84H15v-4h7.94a6 6 0 0 1 4.88 2.51l2.61 3.65a2 2 0 0 0 1.63.84h6.49A4 4 0 0 1 46 91zM65 45v3.5a5 5 0 0 1-2 4l-5.6 4.2a1 1 0 0 0-.4.8v5a4 4 0 1 1-4 0v-5a5 5 0 0 1 2-4l5.6-4.2a1 1 0 0 0 .4-.8V45zM68 82.45v5a5 5 0 0 1-2 4l-5.6 4.2a1 1 0 0 0-.4.8V101h-4v-4.5a5 5 0 0 1 2-4l5.6-4.2a1 1 0 0 0 .4-.8v-5a4 4 0 1 1 4 0z" fill="#8fa2ff" data-original="#8fa2ff"></path></g><path fill="#ffffff" d="M80 87h-4a1 1 0 0 1 0-2h4a1 1 0 0 1 0 2z" data-original="#ffffff" class=""></path><path fill="#a5bced" d="M30 19h-2v-6a2 2 0 0 0-4 0v6h-2a2 2 0 0 0-1.56 3.25l4 5a2 2 0 0 0 3.12 0l4-5A2 2 0 0 0 30 19zM88 19h-2v-6a2 2 0 0 0-4 0v6h-2a2 2 0 0 0-1.56 3.25l4 5a2 2 0 0 0 3.12 0l4-5A2 2 0 0 0 88 19z" data-original="#a5bced" class=""></path><circle cx="84" cy="86" r="1" fill="#ffffff" data-original="#ffffff" class=""></circle><circle cx="88" cy="86" r="1" fill="#ffffff" data-original="#ffffff" class=""></circle><path fill="#ffffff" d="M60 13.35V12a2 2 0 0 0-4 0v1h-3v-1a2 2 0 0 0-4 0v1h-1a2 2 0 0 0 0 4h1v12h-1a2 2 0 0 0 0 4h1v1a2 2 0 0 0 4 0v-1h3v1a2 2 0 0 0 4 0v-1.35A6 6 0 0 0 62.46 23 6 6 0 0 0 60 13.35zM53 17h5a2 2 0 0 1 0 4h-5zm5 12h-5v-4h5a2 2 0 0 1 0 4z" data-original="#ffffff" class=""></path></g></g></svg>