<svg width="110" height="110" xmlns="http://www.w3.org/2000/svg">

 <g>
  <title>background</title>
  <rect fill="none" id="canvas_background" height="602" width="802" y="-1" x="-1"/>
 </g>
 <g>
  <title>Layer 1</title>
  <circle cx="55.39596" cy="52.99691" r="50" fill="#e7efff" id="svg_3"/>
  <circle cx="4.17857" cy="6.2143" r="3" fill="#ff4d69" id="svg_4"/>
  <circle cx="99.17857" cy="4.35714" r="3" fill="#00c99f" id="svg_5"/>
  <circle cx="106.17857" cy="99.2143" r="3" fill="#ffa100" id="svg_6"/>
  <circle cx="9.26857" cy="104.2143" r="3" fill="#00c99f" id="svg_7"/>
  <g id="svg_16" stroke="null">
   <circle cx="18.4397" cy="25.81683" r="17.23453" fill="#ffa100" id="svg_10" stroke="null"/>
   <path fill="#ffffff" d="m24.58447,25.81683a5.30293,5.30293 0 0 0 -2.83044,-9.23373l0,-2.035a1.32573,1.32573 0 0 0 -2.65147,0l0,1.9886l-2.65147,0l0,-1.9886a1.32573,1.32573 0 0 0 -2.65147,0l0,1.9886l-1.9886,0a1.32573,1.32573 0 0 0 0,2.65147l1.9886,0l0,13.25733l-1.9886,0a1.32573,1.32573 0 0 0 0,2.65147l1.9886,0l0,1.9886a1.32573,1.32573 0 0 0 2.65147,0l0,-1.9886l3.31433,0l0,1.9886a1.32573,1.32573 0 0 0 2.65147,0l0,-2.16095a5.30293,5.30293 0 0 0 2.16757,-9.10779l0.00001,0zm-0.84184,-3.9772a2.65147,2.65147 0 0 1 -2.65147,2.65147l-4.64007,0l0,-5.30293l4.64007,0a2.65147,2.65147 0 0 1 2.65147,2.65147l0,-0.00001zm-2.65147,10.60587l-4.64007,0l0,-5.30293l4.64007,0a2.65147,2.65147 0 0 1 0,5.30293z" id="svg_11" stroke="null"/>
  </g>
  <g stroke="null" id="svg_35">
   <path stroke="null" id="svg_32" class="selected" fill="#245cc7" d="m60.928256,24.897014c13.695047,0 24.766277,6.16831 29.613939,16.503518c5.188439,11.0435 2.16305,24.650495 -8.290623,37.448478l0,10.039545a2.566221,2.605733 0 0 1 -1.283111,2.355557c-0.388773,0.227433 -6.380356,0.389885 -12.807109,0.495479l-1.382304,0.019494c-6.233166,0.095847 -12.527128,0.139709 -14.255008,0.149456l-16.254869,0c-1.454299,0 -2.631817,-1.169656 -2.631817,-2.618729l0,-16.384928c-3.143781,-0.40938 -7.75306,-1.483188 -9.524137,-4.343971c-0.916736,-1.473441 -0.993531,-3.229549 -0.227184,-4.946669c1.942265,-4.353719 5.223637,-7.489046 6.844324,-8.853644c0.71995,-5.728064 5.231636,-29.863585 30.196299,-29.863585l0.0016,0z"/>
   <path stroke="null" id="svg_33" fill="#f3f6fa" d="m53.723957,44.907874l-0.017599,0a2.492627,2.531005 0 0 0 -2.347037,1.66351l-7.698664,21.547658c-0.43197,1.294744 0.241583,2.699955 1.519894,3.164569a2.503826,2.542377 0 0 0 3.174179,-1.458821l1.495896,-4.199389l7.410684,0l1.407902,4.157152a2.502226,2.540752 0 0 0 3.148581,1.51243a2.468628,2.506637 0 0 0 1.57429,-3.132078l-7.32749,-21.562279l0,0.006498a2.492627,2.531005 0 0 0 -2.342237,-1.700874l0.0016,0l0,0.001625zm14.80857,-1.397089c-1.377504,0 -2.495826,1.124169 -2.495826,2.511511l0,22.200716c0,1.387342 1.118322,2.511511 2.495826,2.511511c1.375904,0 2.495826,-1.124169 2.495826,-2.511511l0,-22.199091c0,-1.387342 -1.119922,-2.511511 -2.495826,-2.511511l0,-0.001625z"/>
   <path stroke="null" id="svg_34" fill="#245cc7" d="m53.647162,55.005902l1.900668,5.602976l-3.903728,0l2.004661,-5.6046l-0.0016,0.001625z"/>
  </g>
 </g>
</svg>