<?xml version="1.0" encoding="utf-8"?>
<!-- Generator: Adobe Illustrator 28.3.0, SVG Export Plug-In . SVG Version: 6.00 Build 0)  -->
<svg version="1.1" id="图层_1" xmlns="http://www.w3.org/2000/svg" xmlns:xlink="http://www.w3.org/1999/xlink" x="0px" y="0px"
	 viewBox="0 0 2515 613.5" enable-background="new 0 0 2515 613.5" xml:space="preserve" width="203" height="37" >
<circle fill="#357FFA" cx="561.9" cy="314" r="277.8"/>
<g>
	<rect x="414.8" y="187.2" fill="#FFFFFF" width="19.1" height="255"/>
	<path fill="#FFFFFF" d="M783,314.9c0,44.3-14.2,85.4-38.4,118.7c-10.6,14.6-23.1,27.8-37.1,39.1c-11.7,9.4-24.5,17.6-38.1,24.3
		c-23.1,11.3-48.6,18.3-75.6,20.1h-99.4V497h73.2c4.2,0.3,8.5,0.4,12.7,0.4c4.3,0,8.5-0.1,12.7-0.4c28.7-2,55.5-10.6,79-24.3
		c17.7-10.3,33.6-23.6,46.9-39.1c27.4-31.9,43.9-73.4,43.9-118.7c0-45.3-16.5-86.8-43.9-118.7c-13.3-15.5-29.1-28.7-46.8-39.1
		c-27-15.7-58.3-24.7-91.8-24.7h-85.9v-20.1h85.9c31.6,0,61.5,7.2,88.1,20.1c14,6.8,27,15.1,39,24.7c14,11.3,26.5,24.4,37.1,39.1
		C768.7,229.6,783,270.6,783,314.9z"/>
	<polygon fill="#FFFFFF" points="474.5,497 474.5,548.8 455.4,533.2 455.4,497 	"/>
	<path fill="#FFFFFF" d="M437.8,159.8c0,3.6-1.5,6.9-3.8,9.3c-2.4,2.5-5.8,4-9.5,4c-3.8,0-7.2-1.6-9.7-4.2c-2.3-2.4-3.6-5.6-3.6-9.1
		c0-0.9,0.1-1.8,0.3-2.7c0.5-2.5,1.7-4.7,3.4-6.5c2.4-2.6,5.9-4.2,9.7-4.2c3.7,0,7.1,1.5,9.5,4c1.8,1.8,3,4.1,3.6,6.7
		C437.7,158,437.8,158.9,437.8,159.8z"/>
	<path fill="#FFFFFF" d="M437.8,119.1c0,3.6-1.5,6.9-3.8,9.3c-2.4,2.4-5.8,4-9.5,4c-3.8,0-7.2-1.6-9.7-4.2c-2.3-2.4-3.6-5.6-3.6-9.1
		c0-2.5,0.7-4.8,1.9-6.8c0.5-0.9,1.1-1.6,1.8-2.3c2.4-2.6,5.9-4.2,9.7-4.2c3.7,0,7.1,1.5,9.5,4c0.8,0.8,1.4,1.6,2,2.5
		C437.1,114.3,437.8,116.6,437.8,119.1z"/>
	<path fill="#FFFFFF" d="M437.8,510.3c0,2.5-0.7,4.8-1.9,6.8c-0.5,0.9-1.2,1.8-2,2.5c-2.4,2.5-5.8,4-9.5,4c-3.8,0-7.2-1.6-9.7-4.2
		c-0.7-0.7-1.3-1.5-1.8-2.3c-1.2-2-1.9-4.3-1.9-6.8c0-3.5,1.4-6.8,3.6-9.1c2.3-2.4,5.4-4,9-4.2h1.4c3.4,0.2,6.5,1.7,8.8,4
		C436.3,503.3,437.8,506.6,437.8,510.3z"/>
	<path fill="#FFFFFF" d="M425.1,497h-1.4c0.2,0,0.5,0,0.7,0S424.9,497,425.1,497z"/>
	<path fill="#FFFFFF" d="M437.8,469.6c0,1.1-0.1,2.1-0.4,3.1c-0.6,2.4-1.8,4.5-3.5,6.2c-2.4,2.5-5.8,4-9.5,4c-3.8,0-7.2-1.6-9.7-4.2
		c-1.6-1.7-2.7-3.7-3.3-6c-0.2-1-0.4-2.1-0.4-3.1c0-3.5,1.4-6.8,3.6-9.1c2.4-2.6,5.9-4.2,9.7-4.2c3.7,0,7.1,1.5,9.5,4
		C436.3,462.6,437.8,465.9,437.8,469.6z"/>
	<path fill="#FFFFFF" d="M478.4,469.6c0,1.1-0.1,2.1-0.4,3.1c-0.6,2.4-1.8,4.6-3.5,6.3c-2,2-4.7,3.4-7.7,3.8
		c-0.6,0.1-1.2,0.1-1.8,0.1c-3.8,0-7.3-1.6-9.7-4.2c-1.5-1.6-2.7-3.7-3.2-5.9c-0.1-0.4-0.2-0.7-0.2-1.1c-0.1-0.7-0.2-1.4-0.2-2
		c0-3.5,1.4-6.7,3.6-9.1c2.4-2.6,5.8-4.2,9.5-4.2h0c0.1,0,0.1,0,0.2,0c3.7,0,7,1.5,9.4,3.9c1.6,1.6,2.8,3.6,3.4,5.8
		C478.3,467.1,478.4,468.3,478.4,469.6z"/>
	<path fill="#FFFFFF" d="M478.4,159.8c0,1.5-0.2,2.9-0.7,4.2c-0.6,2-1.8,3.8-3.2,5.2c-2.3,2.3-5.5,3.8-9,3.9c-0.1,0-0.3,0-0.4,0
		c-3.8,0-7.3-1.6-9.7-4.2c-2.2-2.4-3.6-5.6-3.6-9.1c0-0.5,0-1,0.1-1.5c0-0.4,0.1-0.8,0.2-1.1c0.5-2.4,1.7-4.6,3.3-6.4
		c2.4-2.6,5.9-4.2,9.7-4.2c0.8,0,1.6,0.1,2.3,0.2c2.8,0.5,5.2,1.8,7.1,3.7c1.8,1.8,3.1,4.1,3.6,6.7
		C478.3,158,478.4,158.9,478.4,159.8z"/>
	<path fill="#FFFFFF" d="M738.2,314.9c0,47.3-20.8,89.8-53.8,118.7c-27.8,24.3-64.1,39.1-103.9,39.1h-85.9v-39.1h85.9
		c65.6,0,118.7-53.2,118.7-118.7s-53.2-118.7-118.7-118.7h-85.9v-39.1h85.9c39.8,0,76.2,14.7,103.9,39.1
		C717.3,225.1,738.2,267.6,738.2,314.9z"/>
	<rect x="455.4" y="187.2" fill="#FFFFFF" width="19.2" height="255"/>
	<polygon fill="#FFFFFF" points="474.5,79.7 474.5,132.4 455.4,132.4 455.4,94.3 	"/>
</g>
<path fill="#FFFFFF" d="M424.9,496.1h-1.4c0.2,0,0.5,0,0.7,0S424.7,496,424.9,496.1z"/>
<g>
	<path fill="#357FFA" d="M1046.2,180.4v298.5c-13.4,0-34.5,1.1-63.2,3.4v-5.1c14.5-4,24.8-12.5,30.9-25.5
		c5.8-12.5,8.8-38.3,8.8-77.6v-117c0-24-2.9-41.4-8.8-52.4c-5.9-10.8-16.1-18.3-30.9-22.7V177C1007.6,178.9,1028.7,180,1046.2,180.4
		z M1083.6,478.9h-17.3V180.4c26.1-0.6,44.3-1.2,54.7-2c15.7-0.9,26.4-1.4,32.3-1.4c28.3,0,52.5,6.5,72.5,19.5
		c19.8,13.2,34.7,30.5,44.7,51.8c9.8,21,14.7,47.6,14.7,79.9c0,49.1-11.8,87-35.4,113.8c-23.8,26.8-56,40.2-96.6,40.2
		c-18.9,0-40.2-1-64-3.1C1088.3,479,1086.4,478.9,1083.6,478.9z M1094.4,206.7c-3,8.5-4.5,38.2-4.5,89.2V365
		c0,41.3,2.7,71.6,8.2,90.6c14.5,4.5,31.2,6.8,49.8,6.8c34.9,0,62.4-11,82.4-33.1c20.2-22.3,30.3-55,30.3-98.3
		c0-42.3-10-75.1-30-98.6c-20-23.4-49.5-35.1-88.4-35.1C1122,197.4,1106.1,200.5,1094.4,206.7z M1259.2,456.8
		c31.3-24,47-65.5,47-124.6c0-57.8-12.8-98.6-38.5-122.3c21.5,14.2,37.8,31.4,48.7,51.8c10.9,20.4,16.4,43.6,16.4,69.7
		C1332.8,385.7,1308.3,427.5,1259.2,456.8z"/>
	<path fill="#357FFA" d="M1415.5,180.4l326.2,278.7v23.2h-5.7l-256.6-218.3v131.7c0,28.7,3.7,48.6,11,59.8
		c7.4,11.1,19,18.4,34.8,21.8v5.1c-28.5-2.3-47.9-3.4-58.1-3.4c-11.5,0-28.9,1.1-52.1,3.4v-5.1c16.2-3.8,27.3-11.4,33.1-22.9
		c5.8-11.5,8.8-31.9,8.8-61.2l-0.3-147.8l-20.4-17.3c-28.3-24.2-52.2-39.5-71.7-45.9V177L1415.5,180.4z M1741.8,431.3l-294.2-250.9
		h33.4l238.2,202.8V265.6c0-19.6-1.3-34.7-4-45.3c-2.6-10-8-18.4-16.1-25.2c-8.1-6.6-18.5-10.9-31.2-13V177c0.2,0,3.5,0.3,9.9,0.8
		c24.7,1.7,41.5,2.5,50.4,2.5c8.1,0,27.5-1.1,58.1-3.4v5.1c-9.8,1.3-18.4,5.4-25.8,12.2c-7.2,6.4-12.1,14.4-14.7,23.8
		c-2.6,9.6-4,23.1-4,40.5V431.3z"/>
	<path fill="#357FFA" d="M2025.8,410.4l-25.2-52.7h-106.8l-26.9,52.7l-1.4,3.7c-0.2,0.2-1.6,2.9-4.2,8.2c-4,7.9-5.9,16-5.9,24.4
		c0,14.4,7.9,24.5,23.8,30.6v5.1c-3.2,0-8.8-0.5-16.7-1.4c-11.1-1.3-21.1-2-30-2c-8.1,0-18.1,0.7-30,2c-8.1,0.9-13.5,1.4-16.1,1.4
		v-5.1c20.8-10.6,39.6-32.4,56.6-65.4l94-182.9c-7.2-14.5-17-25.8-29.6-33.7c-12.6-7.9-27.2-12.3-44-13V177h9.9
		c8.9,0,21,0.6,36.5,1.7c16.2,1.1,26.8,1.7,31.7,1.7l143,298.5c-18.3,0.4-40.3,1.5-66,3.4v-5.1c14.3-2.5,21.5-10.2,21.5-23.2
		C2040,444.3,2035.2,429.8,2025.8,410.4z M1904.9,336.4h85.5l-41.1-86.1L1904.9,336.4z M2107.1,478.9l-143-298.5h27.8
		c3.8,9.8,9.1,22.2,15.9,37.1c7.5,16,11.8,25.6,12.7,28.6c0.9,1.7,1.8,3.7,2.5,5.9l66.6,137.9c23.2,48,48,77,74.2,87.2v5.1
		C2138.1,480,2119.2,478.9,2107.1,478.9z"/>
</g>
</svg>
